<?xml version="1.0" standalone="no"?>
<!DOCTYPE svg PUBLIC "-//W3C//DTD SVG 20010904//EN"
 "http://www.w3.org/TR/2001/REC-SVG-20010904/DTD/svg10.dtd">
<svg version="1.0" xmlns="http://www.w3.org/2000/svg"
 width="1024.000000pt" height="1024.000000pt" viewBox="0 0 1024.000000 1024.000000"
 preserveAspectRatio="xMidYMid meet">

<g transform="translate(0.000000,1024.000000) scale(0.100000,-0.100000)"
fill="#000000" stroke="none">
<path d="M0 5120 l0 -5120 5120 0 5120 0 0 5120 0 5120 -5120 0 -5120 0 0
-5120z m5189 3540 c74 -37 118 -116 108 -192 -8 -58 -55 -129 -105 -156 l-42
-23 -1 -497 c-1 -273 -4 -524 -8 -557 l-6 -60 -35 3 c-19 2 -39 8 -45 13 -6 6
-9 95 -7 240 2 126 1 376 -3 554 -8 322 -8 324 -30 329 -61 15 -115 96 -114
171 0 60 37 124 93 163 40 26 58 32 103 32 34 0 68 -7 92 -20z m574 -227 c81
-57 109 -162 66 -250 -23 -47 -83 -103 -111 -103 -16 0 -16 -25 -11 -362 3
-200 7 -365 9 -367 4 -4 39 27 192 170 l93 87 20 78 c14 57 32 97 65 146 l47
67 -27 45 c-44 75 -30 183 31 238 29 27 105 58 141 58 65 0 141 -45 179 -108
42 -69 25 -191 -34 -244 -36 -32 -93 -49 -159 -47 -60 2 -65 1 -86 -27 -12
-16 -44 -53 -71 -82 -38 -41 -47 -56 -36 -62 24 -16 132 -20 272 -13 l139 8
13 38 c27 78 99 127 189 127 69 0 95 -10 145 -56 75 -67 84 -165 25 -261 -81
-130 -268 -119 -341 21 l-15 28 -196 -7 c-108 -4 -208 -12 -222 -17 -14 -5
-72 -57 -130 -116 -58 -60 -148 -144 -200 -187 -52 -44 -123 -106 -157 -139
-62 -57 -63 -58 -88 -42 -36 24 -31 44 25 111 84 101 78 62 70 510 -5 220 -9
401 -9 401 -1 1 -14 4 -29 7 -65 13 -133 135 -117 209 17 76 61 134 125 163
54 24 143 14 193 -22z m-893 -141 c30 -15 36 -24 42 -62 8 -56 8 -857 -1 -965
l-6 -79 -88 -29 c-49 -16 -90 -27 -93 -24 -7 6 -27 1146 -20 1163 8 20 121 18
166 -4z m-294 -186 c1 0 4 -234 7 -518 l5 -517 -47 -30 c-25 -17 -64 -48 -86
-70 -21 -23 -45 -41 -52 -41 -19 0 -22 40 -33 492 -15 634 -14 677 9 686 16 6
192 4 197 -2z m829 -53 c15 -15 17 -58 13 -474 -3 -495 -3 -492 -55 -473 -52
18 -53 24 -53 505 0 245 3 449 7 452 13 13 72 7 88 -10z m-1511 -49 c7 -3 11
-45 11 -122 -1 -64 -2 -901 -3 -1859 l-2 -1743 -23 0 c-20 0 -67 31 -165 107
l-23 18 -2 1795 c-1 1013 2 1801 7 1809 7 11 28 12 99 6 49 -4 95 -9 101 -11z
m340 -393 c3 -5 8 -166 12 -357 3 -192 9 -380 14 -419 l9 -69 -46 -70 c-108
-165 -136 -267 -136 -506 -1 -152 1 -171 25 -240 31 -87 59 -149 110 -240 l37
-65 -9 -225 c-5 -124 -9 -464 -10 -757 0 -292 -3 -538 -6 -547 -3 -9 -13 -16
-20 -16 -21 0 -171 77 -180 92 -5 7 -6 420 -4 918 7 1227 6 1377 -4 1967 -7
408 -6 516 4 528 9 11 34 15 106 15 51 0 95 -4 98 -9z m2809 -222 c79 -22 147
-111 147 -191 -1 -78 -56 -162 -123 -187 -49 -19 -138 -13 -177 10 -43 27 -55
41 -86 107 l-25 52 -258 0 c-141 0 -283 5 -314 11 -32 5 -66 8 -76 4 -10 -3
-97 -84 -193 -179 l-176 -174 -31 32 c-17 17 -31 37 -31 43 0 12 178 185 304
296 94 82 121 96 155 77 23 -12 582 -35 610 -25 9 4 30 25 46 47 54 74 137
103 228 77z m-3538 -228 l59 -6 -3 -1294 c-2 -712 -5 -1300 -8 -1308 -10 -25
-29 -13 -117 76 l-89 90 1 1223 c0 673 1 1224 1 1226 2 4 93 0 156 -7z m2831
-96 c17 -42 -20 -91 -213 -282 -107 -106 -198 -193 -203 -193 -4 0 -18 16 -30
35 l-22 36 57 65 c32 36 127 130 211 210 149 139 187 164 200 129z m-1081 -58
c158 -55 294 -142 380 -242 117 -138 166 -242 201 -430 29 -155 4 -355 -63
-507 -54 -120 -190 -272 -296 -329 -172 -93 -272 -121 -437 -122 -171 -1 -319
50 -465 160 -88 67 -140 124 -208 228 -105 164 -144 327 -125 530 21 229 136
437 319 574 173 131 301 173 509 166 90 -2 130 -9 185 -28z m2056 -80 c62 -33
109 -104 109 -166 0 -63 -49 -147 -105 -178 -94 -53 -202 -17 -269 90 -9 15
-22 25 -27 21 -6 -3 -147 -6 -314 -6 l-304 1 -119 -132 c-111 -124 -152 -174
-152 -187 0 -3 229 -5 509 -4 l509 0 27 33 c53 62 148 88 222 60 35 -13 90
-64 110 -103 35 -68 6 -180 -59 -229 -126 -93 -276 -41 -303 106 l-7 37 -565
0 c-311 0 -569 2 -573 5 -5 3 -11 27 -15 54 -7 49 -6 49 57 127 35 43 117 134
182 201 l120 123 300 0 c366 0 372 1 392 49 46 111 168 154 275 98z m-4087
-377 c9 -430 -3 -1580 -17 -1597 -5 -7 -13 -13 -18 -13 -15 0 -86 114 -144
228 l-55 111 10 423 c6 233 7 588 3 789 -3 202 -3 374 0 383 5 13 23 16 110
16 l104 0 7 -340z m-341 -132 c2 -18 3 -154 1 -303 -5 -301 -17 -377 -51 -332
-41 50 -78 332 -68 507 8 138 19 160 74 160 36 0 39 -2 44 -32z m4190 -290
c25 -19 56 -184 67 -358 14 -211 16 -196 -29 -224 -31 -20 -39 -32 -45 -65 -3
-22 -40 -109 -81 -192 -42 -84 -73 -154 -70 -157 7 -8 57 27 88 62 39 44 75
100 117 181 24 47 44 74 63 83 16 8 31 12 33 9 25 -25 -147 -404 -231 -510
l-45 -57 -83 61 c-45 34 -109 83 -142 108 -33 25 -103 67 -155 95 -115 60
-209 133 -287 223 -32 37 -110 119 -174 182 -64 64 -133 138 -154 164 l-38 48
18 37 c29 60 55 162 62 239 l6 73 376 2 c207 2 446 4 531 6 117 3 159 0 173
-10z m231 -174 c31 -31 14 -211 -32 -328 l-27 -70 -9 192 c-4 105 -6 198 -2
207 7 20 50 19 70 -1z m-1472 -438 c40 -19 93 -40 118 -47 54 -16 181 -133
339 -312 76 -86 109 -116 120 -111 9 4 39 9 66 11 59 5 104 -18 135 -69 55
-89 47 -164 -24 -234 -93 -94 -216 -69 -262 53 -16 41 -16 56 -2 155 3 20
-287 318 -309 318 -34 0 4 -104 65 -179 20 -25 72 -81 114 -124 l78 -77 0 -63
c0 -77 23 -118 82 -148 129 -66 273 3 325 157 12 35 19 44 32 39 32 -12 141
-90 141 -102 0 -26 -146 -187 -245 -270 -164 -136 -243 -188 -413 -270 -95
-46 -177 -83 -182 -83 -4 0 -16 24 -26 53 -9 28 -30 80 -46 115 -17 35 -28 65
-26 67 2 2 71 9 153 15 217 15 309 48 327 115 11 44 -3 51 -65 31 -63 -20
-437 -49 -451 -36 -11 11 -27 381 -25 595 1 88 1 168 0 178 -1 9 -37 55 -81
101 -44 46 -80 87 -80 92 0 10 51 64 62 64 4 0 40 -15 80 -34z m-1368 -85 c10
-11 41 -35 67 -52 l49 -31 0 -673 c0 -370 -3 -680 -6 -689 -9 -25 -62 -19
-130 13 -43 20 -63 36 -67 52 -12 43 -8 1398 4 1420 10 19 10 19 37 0 15 -10
36 -28 46 -40z m1172 -148 l79 -96 -4 -419 c-3 -377 -1 -418 13 -418 9 0 34
-16 56 -36 42 -38 70 -106 70 -171 0 -46 -37 -119 -74 -148 -77 -58 -215 -47
-278 22 -45 50 -61 143 -34 207 18 42 71 103 107 122 l29 15 0 398 0 399 -43
48 c-54 60 -67 84 -67 121 0 35 16 53 46 53 15 0 44 -28 100 -97z m-225 -70
c0 -49 4 -250 8 -448 8 -395 8 -395 -50 -395 -59 0 -59 1 -61 353 -3 370 -2
501 6 533 4 16 17 27 39 33 58 17 57 18 58 -76z m-607 41 c44 -15 86 -28 92
-29 13 -4 24 -337 24 -741 l0 -283 -29 -15 c-60 -31 -99 -104 -116 -213 -8
-53 -23 -63 -47 -33 -17 21 -18 56 -18 681 0 362 3 659 6 659 4 0 43 -12 88
-26z m340 -55 c3 -17 6 -263 6 -545 0 -507 0 -514 20 -514 36 0 96 -65 115
-125 26 -84 7 -156 -55 -209 -138 -116 -366 22 -321 194 17 64 55 117 99 138
l37 17 1 490 c1 270 2 509 3 532 1 44 8 49 62 52 22 1 28 -4 33 -30z m1767
-1639 c29 -16 49 -64 49 -118 0 -57 -15 -74 -74 -91 -33 -9 -47 -7 -82 8 -49
22 -64 45 -64 97 0 52 62 114 114 114 21 0 46 -5 57 -10z m-1521 -459 c0 -230
3 -439 6 -465 l7 -46 -87 0 -86 0 0 42 0 42 -27 -27 c-74 -70 -208 -79 -310
-21 -107 61 -168 184 -161 322 6 125 66 222 175 279 107 57 200 53 272 -13 21
-18 40 -34 42 -34 2 0 2 39 0 86 -2 48 0 124 4 170 l7 84 79 0 79 0 0 -419z
m-3048 361 c46 -23 94 -51 106 -62 l24 -20 -48 -57 c-27 -32 -49 -60 -51 -62
-1 -2 -16 7 -34 20 -44 31 -138 68 -174 69 -87 0 -145 -40 -145 -101 0 -56 37
-81 190 -129 153 -48 203 -81 243 -159 48 -96 34 -207 -36 -287 -48 -54 -92
-78 -175 -94 -122 -24 -245 7 -368 95 -35 25 -64 49 -64 53 0 5 18 25 39 46
22 22 45 51 51 67 l12 27 40 -40 c53 -53 137 -91 213 -96 50 -3 66 0 95 20 62
42 70 126 15 162 -13 8 -79 34 -147 57 -134 45 -189 72 -230 116 -85 89 -75
258 21 347 17 16 61 40 98 53 56 19 83 23 155 20 79 -3 95 -7 170 -45z m3291
-27 c33 -82 167 -485 167 -503 0 -7 5 -12 10 -12 6 0 10 7 10 15 0 15 68 223
148 450 l38 110 51 3 50 3 87 -253 c49 -139 93 -272 99 -295 6 -24 13 -43 17
-43 3 0 11 21 17 48 17 77 172 515 187 531 9 8 44 16 92 19 l77 5 -5 -49 c-3
-27 -38 -137 -77 -244 -84 -224 -164 -449 -191 -532 -27 -83 -37 -98 -65 -98
-14 0 -25 5 -25 10 0 14 -47 13 -52 -2 -13 -37 -43 43 -154 410 -21 67 -42
121 -48 119 -12 -4 -50 -94 -104 -252 -23 -66 -54 -154 -71 -195 -27 -70 -31
-75 -56 -72 -16 2 -31 -2 -36 -9 -6 -10 -14 -9 -38 0 -22 10 -34 24 -44 55
-66 191 -259 788 -263 813 l-6 32 63 4 c35 2 71 3 79 3 9 -1 26 -30 43 -71z
m-2905 -213 l3 -42 33 25 c167 127 408 29 472 -193 57 -195 -86 -414 -282
-430 -64 -5 -109 9 -168 54 l-46 35 0 -43 c0 -24 -3 -74 -7 -111 l-6 -68 -76
3 -76 3 -1 402 c-1 459 -12 412 96 409 l55 -1 3 -43z m1024 18 c69 -32 133
-93 163 -154 21 -42 27 -70 28 -132 l2 -79 -165 -12 c-91 -6 -198 -9 -237 -6
-66 5 -73 4 -73 -12 0 -30 46 -81 93 -104 81 -39 179 -24 226 35 l21 26 9 -24
c9 -24 67 -81 93 -91 29 -11 -81 -74 -177 -102 -150 -44 -317 31 -391 177 -36
69 -44 188 -20 271 54 184 262 286 428 207z m447 20 c2 0 1 -20 -1 -45 -6 -48
0 -56 18 -27 6 9 35 31 65 47 44 23 66 29 119 29 110 1 186 -59 220 -173 18
-59 20 -90 18 -286 l-3 -220 -70 0 -70 0 -6 95 c-4 52 -7 153 -8 223 -1 147
-12 180 -66 203 -92 38 -185 -11 -203 -108 -5 -25 -7 -124 -4 -219 5 -205 7
-202 -90 -197 l-63 3 -3 337 -2 337 37 4 c31 3 58 3 112 -3z m3217 -5 c27 -8
75 -29 107 -46 l59 -31 -25 -27 c-13 -14 -32 -38 -41 -53 l-17 -27 -50 25
c-96 49 -221 39 -227 -18 -3 -23 3 -30 35 -46 21 -11 65 -27 98 -37 190 -54
275 -150 227 -258 -28 -63 -67 -103 -130 -134 -50 -24 -68 -28 -142 -27 -94 2
-138 15 -239 71 l-65 36 31 15 c17 8 41 33 53 56 13 22 24 43 26 45 1 1 20
-11 41 -28 49 -39 155 -67 209 -55 22 6 45 21 57 36 20 27 20 28 2 48 -10 11
-62 34 -119 51 -122 37 -190 78 -216 130 -55 107 7 223 143 270 64 22 118 24
183 4z m705 -20 c117 -60 183 -155 195 -280 5 -57 3 -73 -9 -83 -11 -10 -77
-14 -246 -15 -220 -2 -231 -3 -231 -21 0 -45 107 -116 176 -116 40 0 120 30
148 56 32 31 22 37 90 -51 l30 -37 -25 -19 c-40 -33 -131 -76 -185 -88 -143
-34 -319 62 -374 205 -32 81 -34 218 -4 285 77 167 278 243 435 164z m-1193
-312 l-3 -338 -63 0 c-45 0 -66 5 -72 15 -11 17 -13 415 -3 563 l6 97 69 0 68
0 -2 -337z"/>
<path d="M5040 8550 c-58 -58 -14 -160 70 -160 33 0 80 53 80 90 0 71 -101
119 -150 70z"/>
<path d="M5581 8334 c-61 -78 4 -184 95 -154 40 13 64 48 64 92 -1 55 -40 88
-104 88 -25 0 -40 -7 -55 -26z"/>
<path d="M6211 8094 c-30 -39 -27 -84 8 -118 74 -71 192 6 146 94 -19 37 -43
50 -94 50 -31 0 -44 -6 -60 -26z"/>
<path d="M6626 7701 c-10 -11 -20 -38 -23 -60 -5 -36 -2 -44 30 -76 45 -45 79
-46 118 -4 38 41 40 99 4 134 -31 32 -103 35 -129 6z"/>
<path d="M6960 7283 c-60 -22 -79 -96 -39 -147 31 -39 63 -49 104 -32 79 34
73 137 -11 172 -18 8 -35 14 -36 13 -2 0 -10 -3 -18 -6z"/>
<path d="M4917 6860 c-19 -16 -41 -30 -50 -30 -8 0 -56 -21 -107 -46 -189 -95
-317 -265 -362 -481 -17 -86 -18 -109 -9 -186 19 -145 83 -284 179 -388 126
-136 305 -213 492 -211 219 2 418 119 532 311 46 77 59 112 80 211 23 110 20
266 -7 360 -63 215 -224 378 -425 430 -24 7 -57 23 -73 36 -26 22 -38 24 -122
24 -90 0 -96 -1 -128 -30z m168 -135 c37 -15 59 -54 52 -92 -3 -18 6 -25 64
-48 85 -33 149 -78 149 -105 0 -36 -39 -99 -71 -115 -33 -18 -30 -19 -101 38
-85 67 -228 44 -228 -38 0 -45 35 -71 145 -109 176 -61 235 -110 254 -211 24
-130 -32 -230 -155 -280 -57 -23 -59 -25 -56 -59 4 -39 -19 -90 -43 -100 -37
-14 -84 -6 -115 20 -28 24 -31 32 -29 77 l3 50 -60 21 c-60 22 -138 70 -164
101 -12 15 -11 23 9 61 28 52 65 94 83 94 7 0 35 -20 62 -44 57 -51 100 -66
185 -66 70 0 101 21 101 68 0 43 -36 69 -139 102 -115 37 -158 59 -197 102
-50 53 -64 89 -64 168 0 107 41 169 148 224 26 13 32 23 32 49 0 42 20 79 50
94 32 16 43 16 85 -2z"/>
<path d="M5027 6663 c-14 -13 -7 -33 11 -33 26 0 34 11 21 27 -13 14 -22 16
-32 6z"/>
<path d="M5026 5714 c-8 -31 8 -54 25 -37 13 13 4 63 -10 63 -5 0 -12 -12 -15
-26z"/>
<path d="M7151 6814 c-56 -72 22 -174 106 -139 58 24 72 97 28 140 -35 36
-105 35 -134 -1z"/>
<path d="M7285 6368 c-32 -19 -44 -41 -45 -81 0 -29 7 -45 29 -68 37 -37 72
-37 113 0 25 22 32 36 32 65 0 64 -78 115 -129 84z"/>
<path d="M6575 5804 c-164 -85 -166 -311 -3 -395 80 -41 195 -8 252 73 35 49
46 133 26 193 -16 47 -75 114 -117 132 -43 18 -121 16 -158 -3z m141 -119 c20
-31 36 -101 29 -125 -8 -24 -71 -53 -100 -46 -33 8 -87 89 -83 123 7 62 121
98 154 48z"/>
<path d="M6419 4954 c-18 -22 -16 -76 4 -108 32 -48 103 -30 121 31 8 26 -16
78 -39 87 -30 11 -72 6 -86 -10z"/>
<path d="M5608 4234 c-56 -30 -65 -96 -20 -143 15 -17 34 -31 42 -32 67 -7
110 28 110 91 0 33 -6 48 -29 71 -32 32 -62 36 -103 13z"/>
<path d="M5041 4021 c-69 -96 48 -210 123 -120 55 64 19 149 -63 149 -32 0
-43 -5 -60 -29z"/>
<path d="M5004 3109 c-48 -14 -101 -79 -109 -133 -16 -106 45 -216 129 -231
132 -25 246 129 192 258 -17 43 -76 93 -123 106 -44 12 -47 12 -89 0z"/>
<path d="M2824 3102 c-60 -29 -84 -74 -84 -157 0 -55 5 -77 25 -111 34 -58 96
-94 160 -94 45 0 52 4 95 48 53 55 72 108 60 171 -21 118 -153 191 -256 143z"/>
<path d="M3538 3105 c-28 -16 -68 -72 -68 -97 0 -12 21 -16 98 -21 173 -12
222 -10 222 11 0 28 -37 81 -72 102 -40 24 -139 27 -180 5z"/>
<path d="M7898 3099 c-39 -20 -68 -63 -68 -99 0 -19 5 -20 159 -20 99 0 162 4
166 10 11 17 -29 83 -65 108 -44 29 -138 30 -192 1z"/>
</g>
</svg>
